<svg width="120" height="28" viewBox="0 0 120 28" fill="none" xmlns="http://www.w3.org/2000/svg">
<path
    d="M106.679 27.2119C105.529 26.7433 104.51 26.0144 103.673 25.0772C102.837 24.14 102.21 22.9945 101.818 21.797C101.4 20.4432 101.191 19.0374 101.217 17.6056C101.217 16.2519 101.426 14.8981 101.87 13.6225C102.288 12.3989 102.916 11.2795 103.778 10.2903C104.614 9.35305 105.607 8.57205 106.731 7.99932C107.959 7.42659 109.318 7.14022 110.677 7.16625C112.115 7.16625 113.552 7.50469 114.833 8.15552C116.035 8.78032 117.08 9.66545 117.89 10.7589C118.727 11.8522 119.301 13.1018 119.641 14.4295C119.981 15.8353 120.086 17.2672 119.929 18.699H105.529C105.529 19.4019 105.633 20.0788 105.816 20.7556C106.025 21.4325 106.339 22.0833 106.757 22.6561C107.201 23.2028 107.724 23.6453 108.351 23.9577C109.083 24.2962 109.893 24.4524 110.703 24.4524C111.775 24.5044 112.846 24.2181 113.761 23.6453C114.571 23.0466 115.172 22.1875 115.46 21.1982H119.563C119.354 22.2135 118.962 23.2028 118.413 24.0879C117.89 24.921 117.211 25.6499 116.427 26.2226C115.617 26.7954 114.754 27.2119 113.813 27.5243C112.82 27.8367 111.801 27.9669 110.756 27.9669H110.573C109.24 27.9669 107.907 27.7065 106.679 27.2119ZM108.587 10.8109C107.985 11.0712 107.437 11.4357 106.992 11.9043C106.548 12.3729 106.182 12.9456 105.947 13.5444C105.712 14.1952 105.555 14.8981 105.503 15.575L115.59 15.6271C115.538 14.9502 115.381 14.2733 115.146 13.6485C114.937 13.0237 114.597 12.477 114.153 12.0084C113.735 11.5398 113.212 11.1493 112.637 10.863C112.01 10.5506 111.331 10.3944 110.625 10.4204C109.919 10.4204 109.24 10.5506 108.613 10.8109H108.587ZM44.0618 26.9776C41.6575 25.9883 39.8281 24.0098 39.018 21.5627C38.1556 18.8292 38.1556 15.9134 39.018 13.206C39.4361 11.9824 40.0895 10.863 40.9519 9.92578C41.8143 8.98858 42.8597 8.25965 44.0618 7.79105C45.3685 7.24435 46.7798 6.98402 48.2171 6.98402C49.6545 6.95799 51.0658 7.21832 52.3724 7.79105C54.7768 8.78032 56.6061 10.7589 57.4163 13.206C57.8606 14.5597 58.0958 15.9655 58.0696 17.3973C58.0958 18.8292 57.8867 20.235 57.4163 21.5887C56.6061 24.0358 54.7768 26.0144 52.3724 27.0036C51.1441 27.5243 49.8113 27.8107 48.4785 27.8107H47.9819C46.6491 27.8107 45.3163 27.5243 44.088 27.0036L44.0618 26.9776ZM50.6999 23.7495C51.4055 23.359 51.9804 22.8123 52.4508 22.1614C52.9213 21.4846 53.261 20.7296 53.4439 19.9226C53.8359 18.2564 53.8359 16.5122 53.4439 14.8461C53.261 14.039 52.9213 13.2841 52.4508 12.6072C52.0066 11.9564 51.4055 11.4097 50.6999 11.0192C49.1318 10.2121 47.2763 10.2121 45.7083 11.0192C45.0027 11.4097 44.4277 11.9564 43.9573 12.6072C43.4869 13.2841 43.1472 14.039 42.9642 14.8461C42.5722 16.5122 42.5722 18.2564 42.9642 19.9226C43.1472 20.7296 43.4869 21.4846 43.9573 22.1614C44.4016 22.8123 45.0027 23.359 45.7083 23.7495C47.2763 24.5565 49.1318 24.5565 50.6999 23.7495ZM97.5319 27.7326C96.774 27.6545 96.4082 27.5503 95.7548 27.1859C95.4412 26.9776 95.1799 26.6912 94.9708 26.3528C94.7617 26.0144 94.6572 25.6759 94.6049 25.2854C93.7164 26.1445 92.6449 26.7693 91.4688 27.1338C90.2928 27.4983 89.0906 27.6805 87.8624 27.6805C86.9999 27.6805 86.1375 27.5764 85.3012 27.3421C84.5433 27.1078 83.8116 26.7433 83.1582 26.3007C82.531 25.8321 82.0345 25.2073 81.7209 24.5044C80.963 22.7342 80.9891 20.7296 81.8254 18.9854C82.2436 18.2564 82.8446 17.6316 83.5764 17.1891C84.3081 16.7205 85.1183 16.4081 85.9807 16.2519C86.8693 16.0436 87.784 15.9134 88.6725 15.8093C89.4827 15.6531 90.1621 15.549 90.92 15.4709C91.5472 15.4709 92.1745 15.3407 92.7755 15.1324C93.2721 15.0023 93.7164 14.768 94.0822 14.4295C94.422 14.013 94.5788 13.5184 94.5265 12.9977C94.5265 12.5031 94.3958 12.0084 94.1345 11.5919C93.8732 11.2274 93.5334 10.9671 93.1414 10.7849C92.7233 10.6027 92.279 10.4465 91.8347 10.3944C91.3382 10.3423 90.8939 10.2903 90.4757 10.2903C89.4304 10.2382 88.385 10.4985 87.4704 11.0452C86.6602 11.5659 86.1637 12.477 86.1637 13.4403H81.8777C81.9299 12.3208 82.2436 11.2274 82.7662 10.2642C83.2889 9.45718 83.9684 8.75429 84.7785 8.23362C85.641 7.71295 86.5818 7.37452 87.5749 7.19229C88.6202 6.98402 89.6656 6.90592 90.7371 6.90592C91.704 6.90592 92.6449 7.01005 93.5857 7.19229C94.4743 7.37452 95.3105 7.71295 96.0946 8.18155C96.8263 8.62412 97.4535 9.24892 97.8978 9.97785C98.3682 10.7849 98.6034 11.696 98.6034 12.6072V22.9164C98.6034 23.411 98.7341 23.6974 98.8909 24.0619C98.9693 24.192 99.1 24.2962 99.2568 24.3482C99.5704 24.4263 100.145 24.4003 100.145 24.4003C100.354 24.4003 100.537 24.3482 100.746 24.2962V27.3421C100.563 27.3941 100.354 27.4462 100.145 27.4983L99.3874 27.6545C99.1522 27.7065 98.3159 27.8627 97.5581 27.7846L97.5319 27.7326ZM91.9654 18.1783C90.9984 18.2564 90.0576 18.3866 89.1168 18.5688C88.6725 18.6469 88.2282 18.7771 87.8101 18.9073C87.3919 19.0374 86.9999 19.2457 86.6602 19.506C86.3204 19.7403 86.0591 20.0788 85.9023 20.4432C85.6932 20.8858 85.5887 21.3804 85.6148 21.8751C85.6148 22.3176 85.7455 22.7602 86.0068 23.1247C86.2682 23.4631 86.6341 23.7234 86.9999 23.9317C87.4181 24.14 87.8624 24.2701 88.3066 24.3222C89.2475 24.4784 90.1883 24.4524 91.103 24.2181C91.6518 24.0879 92.1745 23.8796 92.6449 23.5672C93.1414 23.2548 93.5596 22.8904 93.8993 22.4218C94.2652 21.9011 94.422 21.3023 94.3958 20.6775V17.3453H94.3436C93.6118 17.8139 92.8017 18.0742 91.9393 18.1523L91.9654 18.1783ZM71.4764 27.6805C70.7969 27.6805 70.1435 27.6284 69.4641 27.5243C68.8107 27.4462 68.1835 27.264 67.5563 27.0297C66.9552 26.7693 66.4064 26.4309 65.9098 26.0404C65.3872 25.5978 64.969 25.0511 64.6554 24.4524H64.6031V27.1338H60.5001L60.6046 0.0331268H64.9167V10.108H65.0213C65.3088 9.61338 65.7008 9.17082 66.1189 8.80635C66.5632 8.44188 67.0075 8.10345 67.504 7.81709C68.0267 7.55675 68.5494 7.37452 69.0982 7.21832C69.647 7.08815 70.2219 7.01005 70.7969 7.01005C72.182 6.95799 73.5409 7.24435 74.7954 7.81709C75.893 8.33775 76.8861 9.09272 77.644 10.056C78.4019 11.0452 78.9768 12.1907 79.3427 13.3882C79.7347 14.7159 79.9176 16.0957 79.8915 17.4754C79.8915 18.7771 79.7347 20.0527 79.395 21.3023C79.0813 22.4738 78.5587 23.5933 77.8531 24.5825C77.1736 25.5458 76.285 26.3268 75.2658 26.8735C74.1943 27.4202 73.0183 27.7326 71.79 27.7326H71.5025L71.4764 27.6805ZM66.0666 12.3469C65.0997 13.8568 64.6031 15.6271 64.6815 17.4234C64.6815 18.3606 64.7861 19.2978 65.0213 20.2089C65.2303 21.016 65.6224 21.7449 66.1189 22.3957C66.5893 22.9945 67.1643 23.4631 67.8176 23.8276C69.3334 24.5825 71.1105 24.5565 72.6263 23.7755C73.3057 23.385 73.8807 22.8383 74.325 22.1875C74.7692 21.5106 75.0828 20.7817 75.2658 20.0007C75.4749 19.1416 75.5533 18.2825 75.5794 17.4234C75.5794 16.5382 75.4749 15.6791 75.2397 14.8461C75.0306 14.039 74.6908 13.2841 74.2466 12.6072C73.3319 11.2795 71.8161 10.4725 70.1958 10.4725H69.9083C68.4187 10.4725 67.0075 11.1754 66.0928 12.3729L66.0666 12.3469ZM0.26134 27.316V7.71295C1.4635 8.83239 3.34515 8.83239 4.54731 7.71295V27.316H0.26134ZM29.8972 27.264V10.7849H26.7089L26.6566 7.55675H29.845V5.91665C29.8188 4.87532 29.9756 3.86002 30.2893 2.87076C30.5245 2.16786 30.9426 1.56909 31.4914 1.07446C31.988 0.68396 32.5629 0.397593 33.1901 0.241393C33.8435 0.111227 34.523 0.0331268 35.2024 0.0331268C36.2217 0.0331268 37.2148 0.0851935 38.2078 0.29346V3.67779C37.9204 3.57366 37.6068 3.52159 37.3193 3.52159C37.1102 3.52159 36.7182 3.46952 36.3262 3.46952C35.8035 3.46952 35.2808 3.59969 34.8366 3.86002C34.3923 4.27656 34.1571 4.90136 34.2355 5.50012V7.53072H37.8942V10.7589H34.2355V27.2379H29.9234L29.8972 27.264ZM20.9594 27.264V14.8721C21.0117 13.6746 20.6458 12.477 19.9663 11.4878C19.2085 10.7328 18.1631 10.3423 17.1177 10.4465C16.4383 10.4465 15.7849 10.5766 15.1838 10.837C14.6089 11.0973 14.1123 11.4618 13.7465 11.9303C13.3545 12.425 13.0147 12.9717 12.8056 13.5704C12.5704 14.2213 12.4398 14.9242 12.4659 15.6271V27.264H8.15379V7.55675H12.2568V10.4465L12.3614 10.5506C12.9886 9.48322 13.851 8.59809 14.8964 7.97329C15.9417 7.34849 17.17 7.01005 18.3983 7.03609C20.2277 6.90592 22.0571 7.53072 23.4422 8.72825C24.775 10.056 25.4545 11.8783 25.2977 13.7527V27.29H21.0117L20.9594 27.264ZM0 3.93812C0 2.58439 1.09763 1.51703 2.45659 1.54306C3.78942 1.54306 4.86092 2.63646 4.86092 3.99019C4.86092 5.31789 3.76329 6.38525 2.40432 6.38525C1.43737 6.38525 0.548813 5.78649 0.182938 4.87532C0.0522679 4.56292 0 4.25052 0 3.93812Z"
    fill="#FFFFFF"
  />
</svg>
